:FULLY-SPECIFIED
:FORCE-ALL-JOINTS-BE-3DOF
:DEGREES
227
root 8.68082 16.1695 -5.28252 10.1541 -3.9242 -7.5591
lfemur -48.3105 5.79622 -13.1119
ltibia 28.6819 -0 0
lfoot -6.33902 11.7186 -0.0439937
ltoes -12.9261 0 0
rfemur 17.7625 7.06332 31.178
rtibia -3.18053e-15 0 0
rfoot -10.4039 7.65816 0.0021832
rtoes -13.0164 0 0
lowerback -8.87019 2.88836 3.99533
upperback -1.51885 3.32054 3.7901
thorax 3.39083 1.67583 2.08131
lowerneck -16.1829 -5.9517 -13.8601
upperneck 15.3354 -7.68201 14.9743
head 8.59085 -3.07069 6.45874
lclavicle 9.05297e-15 -1.86858e-14 0
lhumerus -51.5036 -7.65236 93.4503
lradius 23.5596 -0 0
lwrist 1.37569 0 0
lhand -9.07457 -24.9437 0.00336851
lfingers 7.12502 0 0
lthumb 16.8746 4.34289 0.00316751
rclavicle 9.05297e-15 -1.86858e-14 0
rhumerus -40.818 13.4957 -86.9177
rradius 51.4026 -0 0
rwrist -24.9517 0 0
rhand -32.0108 -31.6954 0.000337025
rfingers 7.12502 0 0
rthumb -5.25916 -61.6101 0.000323772
228
root 8.70698 16.153 -5.10848 10.3758 -4.09832 -7.61141
lfemur -48.8538 6.61499 -13.625
ltibia 29.8937 -0 0
lfoot -4.20052 11.424 -0.0274863
ltoes -13.3927 0 0
rfemur 18.1673 7.10817 31.0455
rtibia -7.95137e-15 0 0
rfoot -9.9619 7.7289 0.00136448
rtoes -13.2637 0 0
lowerback -9.0094 2.90213 4.02161
upperback -1.60174 3.3326 3.73418
thorax 3.38665 1.68171 2.01478
lowerneck -16.3064 -5.93642 -13.8119
upperneck 15.3982 -7.6734 15.0177
head 8.63294 -3.05457 6.46827
lclavicle 1.73729e-14 -1.37161e-14 0
lhumerus -51.6077 -7.60274 93.3528
lradius 23.534 -0 0
lwrist 1.85572 0 0
lhand -8.95721 -24.5325 0.00210529
lfingers 7.12502 0 0
lthumb 16.9876 4.74445 0.00197967
rclavicle 1.73729e-14 -1.37161e-14 0
rhumerus -41.0794 13.3929 -87.1697
rradius 51.1106 -0 0
rwrist -24.8074 0 0
rhand -32.043 -31.8454 0.00021064
rfingers 7.12502 0 0
rthumb -5.29023 -61.7594 0.000202357
229
root 8.73313 16.1365 -4.93444 10.5977 -4.27223 -7.66441
lfemur -49.4055 7.42885 -14.1467
ltibia 31.1055 0 0
lfoot -2.06214 11.1303 0
ltoes -13.8593 0 0
rfemur 18.572 7.15394 30.9132
rtibia -1.27222e-14 0 0
rfoot -9.51988 7.79964 0
rtoes -13.5111 0 0
lowerback -9.14861 2.91597 4.04785
upperback -1.68464 3.34458 3.67824
thorax 3.38246 1.68759 1.94825
lowerneck -16.43 -5.92104 -13.7637
upperneck 15.4611 -7.66484 15.0611
head 8.67503 -3.03845 6.47781
lclavicle 2.56929e-14 -8.74653e-15 0
lhumerus -51.7119 -7.55329 93.2552
lradius 23.5084 0 0
lwrist 2.33574 0 0
lhand -8.83987 -24.1214 0
lfingers 7.12502 0 0
lthumb 17.1006 5.14601 0
rclavicle 2.56929e-14 -8.74653e-15 0
rhumerus -41.3402 13.2889 -87.421
rradius 50.8185 0 0
rwrist -24.6632 0 0
rhand -32.0752 -31.9954 0
rfingers 7.12502 0 0
rthumb -5.32131 -61.9086 0
230
root 8.76314 16.1288 -4.75008 10.6255 -4.23563 -7.444
lfemur -49.6179 7.66124 -14.6673
ltibia 32.424 -0 0
lfoot -1.7369 10.4623 -0.00948358
ltoes -12.665 0 0
rfemur 19.1114 6.92114 30.5021
rtibia -2.17338e-14 0 0
rfoot -8.59805 7.66426 -0.00544819
rtoes -14.125 0 0
lowerback -9.14878 2.82201 3.82655
upperback -1.7691 3.24823 3.59436
thorax 3.28863 1.63737 1.96993
lowerneck -16.502 -5.92559 -13.797
upperneck 15.5179 -7.667 15.0922
head 8.71042 -3.0355 6.49593
lclavicle 2.25786e-14 -6.36111e-15 0
lhumerus -51.6059 -7.38074 92.9587
lradius 23.1894 -0 0
lwrist 1.86418 0 0
lhand -8.55103 -24.1381 -0.000210893
lfingers 7.12502 0 0
lthumb 17.3785 5.1038 -0.00051184
rclavicle 2.25786e-14 -6.36111e-15 0
rhumerus -41.8537 12.984 -87.5078
rradius 50.5924 -0 0
rwrist -24.4776 0 0
rhand -31.5531 -32.0258 -0.00069263
rfingers 7.12502 0 0
rthumb -4.81708 -61.948 -0.000867602
